<?xml version="1.0" encoding="UTF-8"?>
<svg version="1.1" xmlns="http://www.w3.org/2000/svg" width="416" height="445">
<path d="M0 0 C137.28 0 274.56 0 416 0 C416 146.85 416 293.7 416 445 C278.72 445 141.44 445 0 445 C0 298.15 0 151.3 0 0 Z " fill="#FD633E" transform="translate(0,0)"/>
<path d="M0 0 C137.28 0 274.56 0 416 0 C416 146.85 416 293.7 416 445 C278.72 445 141.44 445 0 445 C0 298.15 0 151.3 0 0 Z M366 3 C365.26136719 3.68964844 364.52273438 4.37929687 363.76171875 5.08984375 C357.88034264 10.54902736 351.9018878 15.78529951 345.6484375 20.8203125 C343.02724881 22.97757399 340.50845719 25.21311 338 27.5 C333.70142521 31.41768842 329.24390195 35.08967142 324.72265625 38.74609375 C322.05862647 40.95146704 319.49211558 43.2317631 316.9375 45.5625 C313.55131079 48.61977593 310.16272064 51.66900612 306.6875 54.625 C305.90761719 55.29789063 305.12773437 55.97078125 304.32421875 56.6640625 C302 58 302 58 299.765625 57.9453125 C295.77280868 56.5805363 291.9285229 54.93684506 288.0625 53.25 C251.80993523 37.80648303 213.00209593 32.15672978 174 40 C172.70425049 40.25740967 172.70425049 40.25740967 171.38232422 40.52001953 C132.96972018 48.38816962 100.24571726 67.11900993 72 94 C70.94232422 94.97839844 70.94232422 94.97839844 69.86328125 95.9765625 C63.5109522 102.03253543 58.26721657 109.0068146 53 116 C52.3709375 116.83402344 51.741875 117.66804688 51.09375 118.52734375 C35.27112803 140.35808397 24.77502209 164.99050969 18.75 191.1875 C18.59877686 191.8386377 18.44755371 192.48977539 18.29174805 193.16064453 C15.53697276 205.94989491 14.59008723 218.87721454 14.625 231.9375 C14.62487915 232.64389618 14.6247583 233.35029236 14.62463379 234.07809448 C14.65739447 247.66863558 16.21261459 260.68783172 19 274 C19.13889648 274.72815918 19.27779297 275.45631836 19.42089844 276.20654297 C25.90402779 310.13162063 46.08142668 347.88535669 73 370 C81.19734269 360.14506721 89.27697434 350.23211924 97 340 C96.21625 338.948125 95.4325 337.89625 94.625 336.8125 C94.07714844 336.07644531 93.52929688 335.34039062 92.96484375 334.58203125 C91.56759396 332.74588391 90.13964295 330.93292433 88.69140625 329.13671875 C82.1013763 320.93112744 76.83572405 312.33986941 72 303 C71.45601562 301.95457031 70.91203125 300.90914063 70.3515625 299.83203125 C52.74118631 263.81927783 49.68710021 221.72519543 62.33984375 183.64453125 C71.59177845 157.20965233 87.0573974 131.77388708 109 114 C109.92167969 113.24074219 110.84335938 112.48148437 111.79296875 111.69921875 C142.68687113 86.77591162 183.45741636 73.26957959 223.18359375 77.3828125 C226.80450737 77.84978805 230.39814884 78.40527574 234 79 C234.96421875 79.12117188 235.9284375 79.24234375 236.921875 79.3671875 C246.01169725 80.5975778 254.55613388 83.56569741 263.21923828 86.48095703 C265.01087282 87.09327605 265.01087282 87.09327605 267 87 C264.26625185 90.6365208 261.4454341 93.43945421 257.875 96.25 C254.14695303 99.23639306 250.52632476 102.277863 247 105.5 C242.70008209 109.41891252 238.24080453 113.09170869 233.71875 116.75 C231.07852271 118.93501569 228.5327028 121.19171391 226 123.5 C221.70008209 127.41891252 217.24080453 131.09170869 212.71875 134.75 C210.07852271 136.93501569 207.5327028 139.19171391 205 141.5 C200.70008209 145.41891252 196.24080453 149.09170869 191.71875 152.75 C189.07852271 154.93501569 186.5327028 157.19171391 184 159.5 C179.70008209 163.41891252 175.24080453 167.09170869 170.71875 170.75 C168.07852271 172.93501569 165.5327028 175.19171391 163 177.5 C158.70008209 181.41891252 154.24080453 185.09170869 149.71875 188.75 C147.07852271 190.93501569 144.5327028 193.19171391 142 195.5 C137.70008209 199.41891252 133.24080453 203.09170869 128.71875 206.75 C126.07852271 208.93501569 123.5327028 211.19171391 121 213.5 C116.70008209 217.41891252 112.24080453 221.09170869 107.71875 224.75 C104.22871117 227.638308 100.89686481 230.68180754 97.55078125 233.734375 C93.98282372 236.90346438 90.27308279 239.8840994 86.54296875 242.859375 C83.89422894 245.08903616 81.44818417 247.55181583 79 250 C109.03 250 139.06 250 170 250 C166.04 254.62 162.08 259.24 158 264 C153.85186734 269.26646073 153.85186734 269.26646073 149.7265625 274.55078125 C146.56173013 278.59067722 143.24092097 282.49105969 139.90942383 286.39355469 C136.60121437 290.27332723 133.39080657 294.21659603 130.22265625 298.2109375 C127.35853142 301.80493597 124.4616707 305.37174832 121.5625 308.9375 C121.00038818 309.62900146 120.43827637 310.32050293 119.85913086 311.03295898 C116.64307309 314.9867605 113.41882894 318.93367318 110.1875 322.875 C109.49269531 323.72964844 108.79789062 324.58429688 108.08203125 325.46484375 C106.62039102 327.24458955 105.13652286 329.00620064 103.63671875 330.75390625 C102.89035156 331.63949219 102.14398438 332.52507812 101.375 333.4375 C100.36566406 334.61119141 100.36566406 334.61119141 99.3359375 335.80859375 C97.84805585 337.84732292 97.84805585 337.84732292 97.9296875 339.9296875 C99.58109387 343.12401368 102.10991533 345.31730753 104.75 347.6875 C105.32258545 348.20989258 105.8951709 348.73228516 106.48510742 349.27050781 C112.26885005 354.43577367 118.49831194 358.78613998 125 363 C122.21245112 365.93833616 119.36260278 368.26756562 116.0078125 370.53125 C115.05519531 371.17707031 114.10257812 371.82289063 113.12109375 372.48828125 C111.63802734 373.48408203 111.63802734 373.48408203 110.125 374.5 C109.14402344 375.16386719 108.16304688 375.82773437 107.15234375 376.51171875 C105.26419974 377.78831814 103.37148191 379.05818627 101.47363281 380.3203125 C100.00357207 381.31853772 98.55139772 382.34547803 97.14355469 383.4296875 C95.6171875 384.59375 95.6171875 384.59375 93 386 C87.25025135 385.21552386 82.98723064 379.38814926 79.08398438 375.43554688 C78.48779297 374.85482422 77.89160156 374.27410156 77.27734375 373.67578125 C76.74359131 373.13864502 76.20983887 372.60150879 75.65991211 372.0480957 C74.02929318 370.77964944 74.02929318 370.77964944 71.90917969 371.21411133 C69.18197343 372.33672986 68.07706959 374.02963916 66.3125 376.375 C65.61640625 377.28121094 64.9203125 378.18742187 64.203125 379.12109375 C63.47609375 380.07113281 62.7490625 381.02117187 62 382 C60.52838893 383.81863992 59.04916735 385.63114719 57.5625 387.4375 C56.80582031 388.36046875 56.04914062 389.2834375 55.26953125 390.234375 C54.14611328 391.60335937 54.14611328 391.60335937 53 393 C47.81844674 399.32130343 42.65225972 405.65481229 37.5 412 C23.45658073 429.29375848 23.45658073 429.29375848 17 437 C17.33 437.66 17.66 438.32 18 439 C18.50635986 438.64397705 19.01271973 438.2879541 19.53442383 437.92114258 C31.22645852 429.70557983 42.96942452 421.57083187 54.77441406 413.51855469 C57.56952445 411.6114039 60.36334102 409.70240072 63.15405273 407.78881836 C64.45444256 406.89724674 65.75601464 406.00739672 67.05883789 405.11938477 C70.62124001 402.68025046 74.12753702 400.18231579 77.59765625 397.61328125 C78.74693604 396.77228882 78.74693604 396.77228882 79.91943359 395.91430664 C81.39916991 394.82847645 82.87007982 393.7304835 84.33056641 392.61889648 C89.21066238 389.05620284 89.21066238 389.05620284 92.46875 388.82421875 C96.38476534 390.64323205 99.79209021 393.07788069 103.3125 395.5625 C122.76107722 408.87752288 144.58975766 417.5702973 167.4375 423.125 C168.08074219 423.28379639 168.72398437 423.44259277 169.38671875 423.60620117 C180.9870398 426.3193176 192.50515913 427.31171961 204.38623047 427.20581055 C206.49849603 427.18751303 208.61031933 427.18530233 210.72265625 427.18554688 C243.49228346 427.10595978 274.19283772 419.81397341 303 404 C304.74216797 403.08154297 304.74216797 403.08154297 306.51953125 402.14453125 C319.07848553 395.3082879 330.44319289 386.68763221 340.8984375 376.94921875 C342.77927667 375.20472294 344.70618031 373.56532432 346.6875 371.9375 C350.54983038 368.64104593 353.74193826 364.88208566 357 361 C357.763125 360.12472656 358.52625 359.24945313 359.3125 358.34765625 C394.29784972 317.62252259 407.39053911 266.78727244 405 214 C400.74806473 163.94469697 375.20164304 115.87733936 337.04785156 83.33496094 C330.3771564 77.63603041 330.3771564 77.63603041 323 73 C323.62961306 69.7759928 324.76103284 67.53927477 326.56933594 64.80834961 C327.37718536 63.57942238 327.37718536 63.57942238 328.20135498 62.32566833 C329.08394989 61.00237267 329.08394989 61.00237267 329.984375 59.65234375 C330.5958136 58.72643936 331.2072522 57.80053497 331.83721924 56.84657288 C333.8028471 53.87333554 335.77647616 50.90550049 337.75 47.9375 C339.03304032 45.99706753 340.31559734 44.05631541 341.59765625 42.11523438 C351.71694005 26.82261429 351.71694005 26.82261429 356.85351562 19.43408203 C357.46012024 18.55965958 358.06672485 17.68523712 358.69171143 16.78431702 C359.83922659 15.13582017 360.99286979 13.49156686 362.15350342 11.85227966 C362.91524872 10.75859825 362.91524872 10.75859825 363.69238281 9.64282227 C364.13994934 9.00852798 364.58751587 8.3742337 365.04864502 7.72071838 C366.24192714 5.89012595 366.24192714 5.89012595 366 3 Z " fill="#FEFEFE" transform="translate(0,0)"/>
<path d="M0 0 C3.20638767 1.18377164 6.12261169 2.86519858 9.08007812 4.55737305 C9.70462891 4.9009082 10.32917969 5.24444336 10.97265625 5.59838867 C14.68721967 7.71136872 16.3752235 9.22173355 19.01757812 12.74487305 C12.41757812 22.64487305 5.81757813 32.54487305 -0.98242188 42.74487305 C0.94439593 46.59850866 1.61046993 47.45699886 4.89257812 49.80737305 C14.91703752 57.36600883 23.41519544 65.74624216 31.01757812 75.74487305 C31.69433594 76.61756836 32.37109375 77.49026367 33.06835938 78.3894043 C44.73977598 93.86819564 54.05501478 111.98396283 59.01757812 130.74487305 C59.42943359 132.16606445 59.42943359 132.16606445 59.84960938 133.6159668 C65.57984944 154.4198433 65.27345654 176.56052131 62.01757812 197.74487305 C61.82494385 199.11506592 61.82494385 199.11506592 61.62841797 200.51293945 C60.558061 207.63523956 58.81587483 214.21887722 56.39257812 220.99487305 C56.03921387 221.99139893 55.68584961 222.9879248 55.32177734 224.01464844 C52.19140074 232.63186031 48.54483843 240.77599193 44.01757812 248.74487305 C43.64407227 249.40535645 43.27056641 250.06583984 42.88574219 250.74633789 C36.97196906 261.04004541 30.07322637 270.04391253 22.01757812 278.74487305 C21.15648437 279.6884668 20.29539062 280.63206055 19.40820312 281.60424805 C-8.51667016 310.88305458 -48.28091344 327.12133048 -88.45922852 328.15185547 C-119.36152828 328.43997268 -149.13336868 320.97757518 -174.98242188 303.74487305 C-171.49612914 300.04473708 -167.89720702 297.17109951 -163.60742188 294.43237305 C-156.89606506 290.05300034 -150.30119162 285.52261082 -143.73242188 280.93237305 C-136.52416307 275.90129539 -129.30425167 270.88952659 -122.04492188 265.93237305 C-121.26632813 265.40063477 -120.48773438 264.86889648 -119.68554688 264.32104492 C-118.16822211 263.28510492 -116.65080937 262.24929376 -115.13330078 261.21362305 C-105.27678712 254.48300032 -95.46294913 247.69250723 -85.66992188 240.86987305 C-76.20215802 234.27440459 -66.69476255 227.73965452 -57.1640625 221.2355957 C-51.7346468 217.525657 -46.32044874 213.7935171 -40.90332031 210.06567383 C-39.01666355 208.76841746 -37.12867271 207.473128 -35.24023438 206.1784668 C-27.36109341 200.77411914 -19.50920496 195.33189127 -11.66992188 189.86987305 C-2.21086454 183.28039991 7.28769237 176.75140873 16.80957031 170.25317383 C20.40377999 167.79795187 23.99256592 165.33486739 27.58007812 162.86987305 C28.18650146 162.45374756 28.7929248 162.03762207 29.41772461 161.60888672 C34.64053409 158.01905052 39.82498269 154.37968985 45.01757812 150.74487305 C-12.89742188 150.24987305 -12.89742188 150.24987305 -71.98242188 149.74487305 C-70.58072467 146.24063002 -69.58661179 143.90669699 -67.5534668 140.92822266 C-67.06555664 140.20811005 -66.57764648 139.48799744 -66.07495117 138.74606323 C-65.54297119 137.97094391 -65.01099121 137.19582458 -64.46289062 136.3972168 C-63.90037598 135.56876251 -63.33786133 134.74030823 -62.75830078 133.88674927 C-61.53823937 132.09028237 -60.31618681 130.2951665 -59.09237671 128.50125122 C-55.80507197 123.68110595 -52.5340565 118.84994584 -49.26367188 114.01831055 C-48.58523727 113.01637161 -47.90680267 112.01443268 -47.20780945 110.98213196 C-39.77187476 99.98320567 -32.46206067 88.90196561 -25.16992188 77.80737305 C-24.56167572 76.88197723 -23.95342957 75.95658142 -23.32675171 75.00314331 C-22.43640732 73.64831345 -22.43640732 73.64831345 -21.52807617 72.26611328 C-20.9512056 71.38832718 -20.37433502 70.51054108 -19.77998352 69.6061554 C-18.67184991 67.91907785 -17.56447031 66.23150474 -16.45793152 64.54338074 C-14.12198395 60.98251425 -11.77813737 57.42878234 -9.38720703 53.90454102 C-8.2838501 52.27669678 -8.2838501 52.27669678 -7.15820312 50.6159668 C-6.53469971 49.70645264 -5.91119629 48.79693848 -5.26879883 47.85986328 C-3.80920531 45.87265816 -3.80920531 45.87265816 -3.98242188 43.74487305 C-6.16315057 42.24524029 -8.32532445 40.88741274 -10.60742188 39.55737305 C-11.27588135 39.16171143 -11.94434082 38.7660498 -12.63305664 38.35839844 C-19.25550594 34.48940793 -26.067474 31.05850754 -32.98242188 27.74487305 C-28.85404217 22.50071505 -24.36277279 18.44140937 -19.13476562 14.3034668 C-16.78607938 12.43038763 -14.53378689 10.4748695 -12.29882812 8.4675293 C-11.67556641 7.91282959 -11.05230469 7.35812988 -10.41015625 6.78662109 C-9.18264788 5.68973633 -7.96358733 4.5833114 -6.75390625 3.46679688 C-2.48142006 -0.31934532 -2.48142006 -0.31934532 0 0 Z " fill="#FEFEFE" transform="translate(301.982421875,60.255126953125)"/>
</svg>
